<svg width="442" height="276" viewBox="0 0 442 276" fill="none" xmlns="http://www.w3.org/2000/svg">
<rect x="45" width="375" height="276" fill="#000F9F"/>
<path d="M209.434 78.5337H158.665L167.411 28.278C170.326 14.5784 166.167 10 152.443 10H110.42C96.6968 10 90.8662 14.5784 88.7686 28.278L80.0226 78.5337H29.68C15.9567 78.5337 10.1261 83.1121 8.02846 96.8117L0.562393 138.762C-1.49966 152.462 1.80674 157.04 15.5301 157.04H65.8727L57.1267 207.722C55.0646 221.422 58.371 226 72.0944 226H114.118C127.841 226 132.854 221.422 135.769 207.722L144.515 157.04H195.284C209.008 157.04 214.021 152.462 216.936 138.762L224.438 96.8117C226.5 83.1121 223.193 78.5337 209.47 78.5337H209.434Z" fill="white" fill-opacity="0.2"/>
<path d="M242.805 198.729H219.339L223.381 175.462C224.729 169.12 222.806 167 216.463 167H197.039C190.695 167 188 169.12 187.031 175.462L182.988 198.729H159.719C153.376 198.729 150.68 200.848 149.711 207.191L146.26 226.612C145.307 232.955 146.835 235.074 153.178 235.074H176.448L172.405 258.538C171.452 264.88 172.98 267 179.324 267H198.748C205.091 267 207.408 264.88 208.756 258.538L212.798 235.074H236.265C242.608 235.074 244.925 232.955 246.273 226.612L249.74 207.191C250.693 200.848 249.165 198.729 242.822 198.729H242.805Z" fill="white" fill-opacity="0.15"/>
<path d="M434.805 75.7286H411.339L415.381 52.462C416.729 46.1196 414.806 44 408.463 44H389.039C382.695 44 380 46.1196 379.031 52.462L374.988 75.7286H351.719C345.376 75.7286 342.68 77.8482 341.711 84.1906L338.26 103.612C337.307 109.955 338.835 112.074 345.178 112.074H368.448L364.405 135.538C363.452 141.88 364.98 144 371.324 144H390.748C397.091 144 399.408 141.88 400.756 135.538L404.798 112.074H428.265C434.608 112.074 436.925 109.955 438.273 103.612L441.74 84.1906C442.693 77.8482 441.165 75.7286 434.822 75.7286H434.805Z" fill="white" fill-opacity="0.2"/>
<path d="M221.679 39.5951H210.849L212.714 28.8925C213.336 25.975 212.449 25 209.521 25H200.556C197.629 25 196.385 25.975 195.937 28.8925L194.071 39.5951H183.332C180.404 39.5951 179.16 40.5702 178.713 43.4877L177.12 52.4216C176.68 55.3391 177.385 56.3142 180.313 56.3142H191.053L189.187 67.1075C188.747 70.025 189.452 71 192.38 71H201.345C204.273 71 205.342 70.025 205.964 67.1075L207.83 56.3142H218.661C221.588 56.3142 222.658 55.3391 223.28 52.4216L224.88 43.4877C225.32 40.5702 224.615 39.5951 221.687 39.5951H221.679Z" fill="white" fill-opacity="0.1"/>
<path d="M421.679 168.595H410.849L412.714 157.893C413.336 154.975 412.449 154 409.521 154H400.556C397.629 154 396.385 154.975 395.937 157.893L394.071 168.595H383.332C380.404 168.595 379.16 169.57 378.713 172.488L377.12 181.422C376.68 184.339 377.385 185.314 380.313 185.314H391.053L389.187 196.107C388.747 199.025 389.452 200 392.38 200H401.345C404.273 200 405.342 199.025 405.964 196.107L407.83 185.314H418.661C421.588 185.314 422.658 184.339 423.28 181.422L424.88 172.488C425.32 169.57 424.615 168.595 421.687 168.595H421.679Z" fill="white" fill-opacity="0.2"/>
<path d="M283.679 135.595H272.849L274.714 124.893C275.336 121.975 274.449 121 271.521 121H262.556C259.629 121 258.385 121.975 257.937 124.893L256.071 135.595H245.332C242.404 135.595 241.16 136.57 240.713 139.488L239.12 148.422C238.68 151.339 239.385 152.314 242.313 152.314H253.053L251.187 163.107C250.747 166.025 251.452 167 254.38 167H263.345C266.273 167 267.342 166.025 267.964 163.107L269.83 152.314H280.661C283.588 152.314 284.658 151.339 285.28 148.422L286.88 139.488C287.32 136.57 286.615 135.595 283.687 135.595H283.679Z" fill="white" fill-opacity="0.1"/>
<path d="M363.12 178.7H343.94L347.244 159.854C348.346 154.717 346.774 153 341.59 153H325.714C320.53 153 318.327 154.717 317.535 159.854L314.231 178.7H295.212C290.028 178.7 287.825 180.417 287.033 185.554L284.212 201.286C283.433 206.423 284.683 208.14 289.867 208.14H308.885L305.581 227.146C304.802 232.283 306.051 234 311.236 234H327.111C332.295 234 334.189 232.283 335.291 227.146L338.595 208.14H357.774C362.958 208.14 364.852 206.423 365.954 201.286L368.788 185.554C369.567 180.417 368.317 178.7 363.133 178.7H363.12Z" fill="white" fill-opacity="0.1"/>
</svg>
