<svg width="33" height="29" viewBox="0 0 33 29" fill="none" xmlns="http://www.w3.org/2000/svg">
<path fill-rule="evenodd" clip-rule="evenodd" d="M30.949 4.16255H25.7983L21.6504 0H11.3493L7.20137 4.16255H2.05103C0.911525 4.16255 0 5.0773 0 6.22084V26.9417C0 28.0853 0.911525 29 2.05103 29H30.949C32.0885 29 33 28.0853 33 26.9417V6.22084C33 5.0773 32.0885 4.16255 30.949 4.16255ZM29.9007 25.8897H3.09946V7.27297H8.5236L12.6715 3.11042H20.4201L24.568 7.27297H29.9921V25.8897H29.9007ZM16.5001 8.27929C12.5347 8.27929 9.29839 11.5271 9.29839 15.5064C9.29839 19.4858 12.5348 22.7336 16.5001 22.7336C20.4654 22.7336 23.7018 19.4858 23.7018 15.5064C23.7018 11.5271 20.4654 8.27929 16.5001 8.27929ZM16.5001 19.6689C14.2211 19.6689 12.3522 17.7934 12.3522 15.5064C12.3522 13.2193 14.2211 11.3438 16.5001 11.3438C18.7791 11.3438 20.648 13.2193 20.648 15.5064C20.648 17.8391 18.7791 19.6689 16.5001 19.6689Z" fill="white"/>
</svg>
