<svg width="26" height="26" viewBox="0 0 26 26" fill="none" xmlns="http://www.w3.org/2000/svg">
<circle cx="13" cy="13" r="13" fill="#DAE2FF"/>
<path d="M23 13.1957C23 13.1957 19.6957 19.3913 13.5 19.3913C7.30435 19.3913 4 13.1957 4 13.1957C4 13.1957 7.30435 7 13.5 7C19.6957 7 23 13.1957 23 13.1957Z" stroke="#1A44DB" stroke-linecap="round" stroke-linejoin="round"/>
<path d="M13.5001 16.9133C15.5532 16.9133 17.2175 15.249 17.2175 13.1959C17.2175 11.1428 15.5532 9.47852 13.5001 9.47852C11.447 9.47852 9.78271 11.1428 9.78271 13.1959C9.78271 15.249 11.447 16.9133 13.5001 16.9133Z" stroke="#1A44DB" stroke-linecap="round" stroke-linejoin="round"/>
<circle cx="12.5" cy="11.5" r="1.5" fill="#1A44DB"/>
</svg>
