<svg width="20" height="23" viewBox="0 0 20 23" fill="none" xmlns="http://www.w3.org/2000/svg">
<path d="M9.99927 12.4361C9.73486 12.4361 9.4811 12.3309 9.29412 12.1439C9.10715 11.9569 9.00195 11.7031 9.00195 11.4387V1.46597C9.00195 1.10973 9.19207 0.780639 9.50072 0.602414C9.80916 0.424195 10.1894 0.424195 10.4978 0.602414C10.8065 0.780633 10.9966 1.10974 10.9966 1.46597V11.4387C10.9966 11.7031 10.8914 11.9569 10.7044 12.1439C10.5174 12.3309 10.2637 12.4361 9.99928 12.4361H9.99927Z" fill="#F12525"/>
<path d="M9.9996 22.4086C7.85551 22.4145 5.76656 21.7291 4.04276 20.4543C2.31875 19.1794 1.05184 17.3828 0.429285 15.3309C-0.193004 13.2791 -0.137496 11.0812 0.587678 9.06318C1.31265 7.04533 2.66894 5.31513 4.45514 4.12873C4.75085 3.92922 5.13048 3.90271 5.45124 4.05902C5.77178 4.21533 5.98465 4.53087 6.00968 4.88668C6.03452 5.24249 5.86778 5.58472 5.57206 5.78426C3.66026 7.05977 2.39143 9.09765 2.09049 11.3757C1.78955 13.6537 2.48554 15.9514 4.00042 17.6798C5.51527 19.408 7.70172 20.3988 10 20.3988C12.2983 20.3988 14.4845 19.408 15.9996 17.6798C17.5144 15.9516 18.2104 13.6541 17.9095 11.3757C17.6086 9.09723 16.3397 7.05956 14.4279 5.78426C14.1322 5.58475 13.9655 5.24248 13.9903 4.88668C14.0153 4.53086 14.2282 4.21534 14.5488 4.05902C14.8695 3.90271 15.2491 3.92922 15.5449 4.12873C17.3311 5.31513 18.6873 7.04539 19.4123 9.06318C20.1375 11.081 20.193 13.2789 19.5707 15.3309C18.9482 17.3828 17.6812 19.1794 15.9572 20.4543C14.2332 21.7291 12.1443 22.4145 10.0004 22.4086H9.9996Z" fill="#F12525"/>
</svg>
