<svg width="23" height="23" viewBox="0 0 23 23" fill="none" xmlns="http://www.w3.org/2000/svg">
<path d="M21.8668 20.7389L21.8665 20.7386L15.9548 14.8324C17.3335 13.1672 18.0273 11.0382 17.8928 8.87803C17.7564 6.68721 16.7786 4.63391 15.1639 3.14742C13.5491 1.66093 11.4224 0.85633 9.22833 0.90183C7.03426 0.94733 4.94271 1.83941 3.39094 3.39157C1.83917 4.94372 0.947318 7.03579 0.901829 9.23038C0.856341 11.425 1.66074 13.5522 3.14685 15.1674C4.63297 16.7825 6.68576 17.7606 8.87606 17.897C11.0357 18.0315 13.1641 17.3375 14.8289 15.9586L20.7336 21.8716L20.7336 21.8717L20.7352 21.8732C20.8873 22.0188 21.0896 22.1 21.3001 22.1C21.5106 22.1 21.7129 22.0188 21.8649 21.8732L21.8668 21.8714C22.0162 21.7208 22.1 21.5173 22.1 21.3051C22.1 21.093 22.0162 20.8895 21.8668 20.7389ZM9.43103 16.3167C8.06995 16.3167 6.73943 15.913 5.60772 15.1566C4.47602 14.4002 3.59396 13.3252 3.07309 12.0674C2.55222 10.8096 2.41593 9.4255 2.68147 8.09022C2.94701 6.75494 3.60244 5.52841 4.56488 4.56573C5.52732 3.60305 6.75353 2.94746 8.08847 2.68186C9.4234 2.41626 10.8071 2.55258 12.0646 3.07357C13.3221 3.59457 14.3968 4.47684 15.153 5.60884C15.9092 6.74083 16.3128 8.07169 16.3128 9.43313C16.3098 11.2578 15.5838 13.0069 14.2938 14.2972C13.0039 15.5874 11.2553 16.3136 9.43103 16.3167Z" fill="#1A44DB" stroke="#1A44DB" stroke-width="0.2"/>
</svg>
